<svg xmlns="http://www.w3.org/2000/svg" viewBox="0 0 512 512" role="img" aria-label="RouteNote">
  <defs>
    <linearGradient id="bg" x1="112" y1="48" x2="416" y2="464" gradientUnits="userSpaceOnUse">
      <stop stop-color="#0B82FF"/>
      <stop offset="0.52" stop-color="#00A8F0"/>
      <stop offset="1" stop-color="#10D6BE"/>
    </linearGradient>
  </defs>
  <rect x="7" y="7" width="498" height="498" rx="118" fill="url(#bg)"/>
  <path fill="#FFFFFF" d="M70 496c32-45 78-76 126-102 54-29 85-48 91-79 7-34-20-55-97-87-45-19-67-36-64-63 4-40 63-65 146-83 20-4 39 9 43 29s-9 39-29 43c-52 11-83 22-91 31 6 5 20 12 42 21 69 29 132 67 120 122-10 50-58 86-126 123-29 16-58 32-83 45H70Z"/>
  <path fill="#FFFFFF" d="M321 68c-64 0-116 52-116 116 0 87 105 193 110 197 4 4 11 4 15 0 4-4 110-110 110-197 0-64-52-116-119-116Zm0 159a43 43 0 1 1 0-86 43 43 0 0 1 0 86Z"/>
</svg>
