<svg xmlns="http://www.w3.org/2000/svg" width="48" height="48" viewBox="0 0 48 48" fill="none">
  <!-- Background -->
  <rect width="48" height="48" rx="10" fill="#F9FAFB"/>
  <!-- Route path -->
  <path d="M12 36 C12 36, 16 28, 20 24 C24 20, 28 22, 30 18 C32 14, 36 12, 36 12" stroke="#4F46E5" stroke-width="2.5" stroke-linecap="round" fill="none" opacity="0.35"/>
  <!-- Pin 1 (start) -->
  <g transform="translate(12, 32)">
    <circle cx="0" cy="0" r="4" fill="#4F46E5" opacity="0.2"/>
    <circle cx="0" cy="0" r="2" fill="#4F46E5"/>
  </g>
  <!-- Pin 2 (mid) -->
  <g transform="translate(26, 20)">
    <path d="M0-8 C-4.4-8 -7-5 -7-1.5 C-7 3 0 8 0 8 C0 8 7 3 7-1.5 C7-5 4.4-8 0-8Z" fill="#6366F1"/>
    <circle cx="0" cy="-2" r="2.5" fill="#FFFFFF"/>
  </g>
  <!-- Pin 3 (end) -->
  <g transform="translate(36, 10)">
    <circle cx="0" cy="0" r="3.5" fill="#4F46E5" opacity="0.2"/>
    <circle cx="0" cy="0" r="1.8" fill="#4F46E5"/>
  </g>
</svg>
